<svg width="178" height="40" viewBox="0 0 178 40" fill="none" xmlns="http://www.w3.org/2000/svg">
<path d="M32.294 14.7814C31.9641 14.5898 31.6779 14.3521 31.4402 14.0804L23.2878 19.5089V23.9404L19.4603 26.1501L18.8369 35.913C19.7659 36.1022 20.6149 36.6697 21.1266 37.5551C21.5705 38.324 21.6797 39.1948 21.5026 40L36.3131 31.4475V14.3497C35.2386 15.3248 33.6183 15.5455 32.294 14.7814Z" fill="url(#paint0_linear)"/>
<path d="M36.3132 31.4475L23.2854 23.9258V23.9379L19.4579 26.1476L18.8345 35.9105C19.7635 36.0997 20.6125 36.6673 21.1243 37.5526C21.5681 38.3215 21.6773 39.1923 21.5002 39.9976L36.3132 31.4475Z" fill="url(#paint1_linear)"/>
<path d="M13.0277 23.9379V19.5088L4.87296 14.078C4.24474 14.7887 3.32788 15.2398 2.30671 15.2398C1.41653 15.2398 0.611242 14.8978 0 14.3424V31.4451L14.8081 39.9952C14.5 38.5762 15.1185 37.0627 16.4429 36.2986C16.7728 36.107 17.1221 35.9809 17.4786 35.9105L16.8553 26.15L13.0277 23.9379Z" fill="url(#paint2_linear)"/>
<path d="M13.0277 23.9379V23.9258L0 31.4475L14.8081 39.9976C14.5 38.5786 15.1185 37.0651 16.4429 36.301C16.7728 36.1094 17.1221 35.9833 17.4786 35.9129L16.8553 26.1525L13.0277 23.9379Z" fill="url(#paint3_linear)"/>
<path d="M18.1578 0L3.34973 8.54769C4.7323 8.98915 5.73406 10.2844 5.73406 11.8125C5.73406 12.1933 5.66857 12.5596 5.55457 12.904L14.3424 17.2555L18.1578 15.0531L21.9732 17.2555L30.7635 12.9016C30.4627 12.0017 30.5282 10.983 31.04 10.0976C31.4839 9.32872 32.1849 8.79995 32.9683 8.55012L18.1578 0Z" fill="url(#paint4_linear)"/>
<path d="M18.1578 0V15.0555L21.9732 17.2579L30.7634 12.904C30.4627 12.0041 30.5282 10.9854 31.04 10.1001C31.4838 9.33115 32.1848 8.80238 32.9683 8.55254L18.1578 0Z" fill="url(#paint5_linear)"/>
<path d="M18.1578 15.0531L21.9708 17.2555L25.842 15.3393L18.1578 10.903L10.4736 15.3393L14.3423 17.2555L18.1578 15.0531Z" fill="url(#paint6_linear)"/>
<path d="M13.0277 23.9379V19.5088L9.44513 17.1221V25.9948L17.1293 30.4311L16.8552 26.1476L13.0277 23.9379Z" fill="url(#paint7_linear)"/>
<path d="M23.2854 19.5088V23.9379L19.4603 26.1476L19.1862 30.4311L26.8704 25.9948V17.1221L23.2854 19.5088Z" fill="url(#paint8_linear)"/>
<path d="M55.6 27.2571C57.749 27.2571 59.4755 26.0265 59.4755 22.9408V15.2449H56.9408V22.9776C56.9408 24.3184 56.3347 25.0163 55.3061 25.0163C54.6449 25.0163 54.1306 24.7592 53.6163 24.1714L52.4224 26.1918C53.1939 26.7796 54.149 27.2571 55.6 27.2571ZM69.7545 27H72.4728L67.8443 15.2449H65.2545L60.6075 27H63.3259L64.2259 24.4653H68.8545L69.7545 27ZM64.8871 22.5551L66.5402 17.8714L68.1933 22.5551H64.8871ZM79.6562 27.2571C81.1072 27.2571 82.3929 26.8531 83.4215 26.1L82.0991 24.1163C81.4562 24.6673 80.6113 25.0163 79.6929 25.0163C77.3787 25.0163 75.9644 23.1796 75.9644 21.1041C75.9644 19.0102 77.3787 17.1918 79.6929 17.1918C80.6113 17.1918 81.4562 17.5224 82.0991 18.0735L83.4215 16.0898C82.3929 15.3551 81.1072 14.9327 79.6562 14.9327C75.8542 14.9327 73.3562 17.6878 73.3562 21.1041C73.3562 24.502 75.8542 27.2571 79.6562 27.2571ZM97.9178 15.2449V23.1061L92.1872 15.2449H89.8545V27H92.279V19.1571L98.0096 27H100.361V15.2449H97.9178ZM110.781 17.3204V15.2449H103.214V27H110.781V24.9245H105.749V22.0592H109.973V20.1673H105.749V17.3204H110.781ZM120.825 15.2449H112.046V17.3571H115.187V27H117.721V17.3571H120.825V15.2449ZM136.249 15.2449L133.843 23.5286L131.547 15.2449H129.471L127.157 23.5653L124.769 15.2449H122.088L125.945 27H128.204L130.518 19.1755L132.814 27H135.073L138.931 15.2449H136.249ZM146.439 27.2571C150.278 27.2571 152.813 24.5204 152.813 21.0857C152.813 17.6694 150.278 14.9327 146.439 14.9327C142.582 14.9327 140.048 17.6694 140.048 21.0857C140.048 24.5204 142.582 27.2571 146.439 27.2571ZM146.439 25.0163C144.088 25.0163 142.656 23.1612 142.656 21.0857C142.656 19.0102 144.088 17.1918 146.439 17.1918C148.754 17.1918 150.205 19.0102 150.205 21.0857C150.205 23.1612 148.754 25.0163 146.439 25.0163ZM161.353 27H164.438L160.765 22.0592C162.271 21.5816 163.41 20.5531 163.41 18.8082C163.41 16.4204 161.353 15.2449 159.259 15.2449H155.034V27H157.569V22.3531H158.23L161.353 27ZM157.569 17.1551H158.634C160.067 17.1551 160.802 17.8163 160.802 18.8449C160.802 19.8918 160.067 20.4796 158.726 20.4796H157.569V17.1551ZM176.5 27L170.879 20.7735L176.077 15.2449H172.771L168.749 19.8735V15.2449H166.214V27H168.749V21.7102L173.193 27H176.5Z" fill="white"/>
<defs>
<linearGradient id="paint0_linear" x1="22.3564" y1="23.4025" x2="37.3569" y2="32.0372" gradientUnits="userSpaceOnUse">
<stop stop-color="#8F282C"/>
<stop offset="1" stop-color="#ED1C24"/>
</linearGradient>
<linearGradient id="paint1_linear" x1="27.7744" y1="28.9966" x2="21.0661" y2="40.9226" gradientUnits="userSpaceOnUse">
<stop stop-color="#8F282C"/>
<stop offset="1" stop-color="#ED1C24"/>
</linearGradient>
<linearGradient id="paint2_linear" x1="7.48413" y1="25.0042" x2="3.7766" y2="10.1042" gradientUnits="userSpaceOnUse">
<stop stop-color="#C8832A"/>
<stop offset="1" stop-color="#EBE124"/>
</linearGradient>
<linearGradient id="paint3_linear" x1="17.2205" y1="27.9608" x2="2.95686" y2="39.2377" gradientUnits="userSpaceOnUse">
<stop stop-color="#C8832A"/>
<stop offset="1" stop-color="#EBE124"/>
</linearGradient>
<linearGradient id="paint4_linear" x1="18.1594" y1="16.6795" x2="18.1594" y2="2.04931" gradientUnits="userSpaceOnUse">
<stop stop-color="#2A2A83"/>
<stop offset="1" stop-color="#1B75BC"/>
</linearGradient>
<linearGradient id="paint5_linear" x1="18.8431" y1="8.16753" x2="32.2042" y2="13.2042" gradientUnits="userSpaceOnUse">
<stop stop-color="#2A2A83"/>
<stop offset="1" stop-color="#1B75BC"/>
</linearGradient>
<linearGradient id="paint6_linear" x1="18.1572" y1="18.5604" x2="18.1572" y2="10.6657" gradientUnits="userSpaceOnUse">
<stop stop-color="#2A2A83"/>
<stop offset="1" stop-color="#1B75BC"/>
</linearGradient>
<linearGradient id="paint7_linear" x1="16.9431" y1="21.5549" x2="6.78819" y2="27.7243" gradientUnits="userSpaceOnUse">
<stop stop-color="#C8832A"/>
<stop offset="1" stop-color="#EBE124"/>
</linearGradient>
<linearGradient id="paint8_linear" x1="18.6444" y1="21.3605" x2="28.2309" y2="26.644" gradientUnits="userSpaceOnUse">
<stop stop-color="#8F282C"/>
<stop offset="1" stop-color="#ED1C24"/>
</linearGradient>
</defs>
</svg>
