<svg width="166" height="25" viewBox="0 0 166 25" fill="none" xmlns="http://www.w3.org/2000/svg">
<path d="M20.1837 9.23841C19.9775 9.11865 19.7987 8.97008 19.6501 8.80029L14.5549 12.1931V14.9627L12.1627 16.3438L11.7731 22.4456C12.3537 22.5639 12.8843 22.9186 13.2042 23.4719C13.4816 23.9525 13.5498 24.4967 13.4391 25L22.6957 19.6547V8.96857C22.0241 9.57799 21.0114 9.71594 20.1837 9.23841Z" fill="#BDBDBD"/>
<path d="M22.6957 19.6547L14.5534 14.9536V14.9612L12.1612 16.3422L11.7716 22.4441C12.3522 22.5623 12.8828 22.917 13.2027 23.4704C13.4801 23.9509 13.5483 24.4952 13.4377 24.9985L22.6957 19.6547Z" fill="#BDBDBD"/>
<path d="M8.14232 14.9612V12.193L3.0456 8.79877C2.65296 9.24295 2.07992 9.52492 1.4417 9.52492C0.885331 9.52492 0.382027 9.31117 0 8.96401V19.6532L9.25505 24.997C9.06252 24.1102 9.44909 23.1642 10.2768 22.6866C10.483 22.5669 10.7013 22.4881 10.9241 22.4441L10.5345 16.3438L8.14232 14.9612Z" fill="#BDBDBD"/>
<path d="M8.14232 14.9612V14.9536L0 19.6547L9.25505 24.9985C9.06252 24.1116 9.44909 23.1657 10.2768 22.6881C10.483 22.5684 10.7013 22.4895 10.9241 22.4456L10.5345 16.3453L8.14232 14.9612Z" fill="#BDBDBD"/>
<path d="M11.3486 0L2.09357 5.34231C2.95767 5.61822 3.58377 6.42775 3.58377 7.38281C3.58377 7.62082 3.54284 7.84974 3.47159 8.065L8.96398 10.7847L11.3486 9.40816L13.7332 10.7847L19.2272 8.06349C19.0392 7.50106 19.0801 6.86435 19.4 6.31102C19.6774 5.83045 20.1155 5.49997 20.6052 5.34382L11.3486 0Z" fill="#BDBDBD"/>
<path d="M11.3486 0V9.40968L13.7333 10.7862L19.2272 8.06501C19.0392 7.50258 19.0801 6.86587 19.4 6.31253C19.6774 5.83197 20.1155 5.50149 20.6052 5.34534L11.3486 0Z" fill="#BDBDBD"/>
<path d="M11.3486 9.40817L13.7317 10.7847L16.1512 9.58706L11.3486 6.81433L6.54596 9.58706L8.96394 10.7847L11.3486 9.40817Z" fill="#BDBDBD"/>
<path d="M8.1423 14.9612V12.193L5.9032 10.7013V16.2467L10.7058 19.0195L10.5345 16.3422L8.1423 14.9612Z" fill="#BDBDBD"/>
<path d="M14.5534 12.193V14.9612L12.1627 16.3422L11.9914 19.0195L16.794 16.2467V10.7013L14.5534 12.193Z" fill="#BDBDBD"/>
<path d="M43.6 20.2571C45.749 20.2571 47.4755 19.0265 47.4755 15.9408V8.2449H44.9408V15.9776C44.9408 17.3184 44.3347 18.0163 43.3061 18.0163C42.6449 18.0163 42.1306 17.7592 41.6163 17.1714L40.4224 19.1918C41.1939 19.7796 42.149 20.2571 43.6 20.2571ZM57.7545 20H60.4728L55.8443 8.2449H53.2545L48.6075 20H51.3259L52.2259 17.4653H56.8545L57.7545 20ZM52.8871 15.5551L54.5402 10.8714L56.1933 15.5551H52.8871ZM67.6562 20.2571C69.1072 20.2571 70.3929 19.8531 71.4215 19.1L70.0991 17.1163C69.4562 17.6673 68.6113 18.0163 67.6929 18.0163C65.3787 18.0163 63.9644 16.1796 63.9644 14.1041C63.9644 12.0102 65.3787 10.1918 67.6929 10.1918C68.6113 10.1918 69.4562 10.5224 70.0991 11.0735L71.4215 9.0898C70.3929 8.3551 69.1072 7.93265 67.6562 7.93265C63.8542 7.93265 61.3562 10.6878 61.3562 14.1041C61.3562 17.502 63.8542 20.2571 67.6562 20.2571ZM85.9178 8.2449V16.1061L80.1872 8.2449H77.8545V20H80.279V12.1571L86.0096 20H88.3607V8.2449H85.9178ZM98.7812 10.3204V8.2449H91.2139V20H98.7812V17.9245H93.7486V15.0592H97.9731V13.1673H93.7486V10.3204H98.7812ZM108.825 8.2449H100.046V10.3571H103.187V20H105.721V10.3571H108.825V8.2449ZM124.249 8.2449L121.843 16.5286L119.547 8.2449H117.471L115.157 16.5653L112.769 8.2449H110.088L113.945 20H116.204L118.518 12.1755L120.814 20H123.073L126.931 8.2449H124.249ZM134.439 20.2571C138.278 20.2571 140.813 17.5204 140.813 14.0857C140.813 10.6694 138.278 7.93265 134.439 7.93265C130.582 7.93265 128.048 10.6694 128.048 14.0857C128.048 17.5204 130.582 20.2571 134.439 20.2571ZM134.439 18.0163C132.088 18.0163 130.656 16.1612 130.656 14.0857C130.656 12.0102 132.088 10.1918 134.439 10.1918C136.754 10.1918 138.205 12.0102 138.205 14.0857C138.205 16.1612 136.754 18.0163 134.439 18.0163ZM149.353 20H152.438L148.765 15.0592C150.271 14.5816 151.41 13.5531 151.41 11.8082C151.41 9.42041 149.353 8.2449 147.259 8.2449H143.034V20H145.569V15.3531H146.23L149.353 20ZM145.569 10.1551H146.634C148.067 10.1551 148.802 10.8163 148.802 11.8449C148.802 12.8918 148.067 13.4796 146.726 13.4796H145.569V10.1551ZM164.5 20L158.879 13.7735L164.077 8.2449H160.771L156.749 12.8735V8.2449H154.214V20H156.749V14.7102L161.193 20H164.5Z" fill="#BDBDBD"/>
</svg>
